
<svg
  xmlns="http://www.w3.org/2000/svg"
  version="1.1"
  xmlns:xlink="http://www.w3.org/1999/xlink"
  width="512"
  height="512"
  x="0"
  y="0"
  viewBox="0 0 512 512"
  style="enable-background: new 0 0 512 512"
  xml:space="preserve"
  class=""
>
  <g>
    <path
      d="M158.647 182.8v-32.53c0-15.276-10.2-28.673-24.926-32.737-49.496-13.66-83.78-58.687-83.78-110.033h8a113.896 113.896 0 0 0 80.377 73.918c35.445 8.809 60.329 40.635 60.329 77.158v4.601M353.397 182.8v-32.53c0-15.276 10.2-28.673 24.926-32.737 49.496-13.66 83.78-58.686 83.78-110.033h-8a113.896 113.896 0 0 1-80.377 73.918c-35.445 8.809-60.329 40.635-60.329 77.158v4.601"
      style="stroke-width: 15; stroke-miterlimit: 10"
      fill="none"
      stroke="#000000"
      stroke-width="15"
      stroke-miterlimit="10"
      data-original="#000000"
      class=""
    ></path>
    <path
      d="M353.353 182.8s-38.16-30-97.353-30-97.353 30-97.353 30v98.489a58.952 58.952 0 0 0 22.126 46.035 58.954 58.954 0 0 1 22.126 46.035c0 28.831 23.372 52.203 52.203 52.203h1.798c28.831 0 52.203-23.372 52.203-52.203a58.952 58.952 0 0 1 22.126-46.035 58.954 58.954 0 0 0 22.126-46.035V182.8z"
      style="stroke-width: 15; stroke-miterlimit: 10"
      fill="none"
      stroke="#000000"
      stroke-width="15"
      stroke-miterlimit="10"
      data-original="#000000"
      class=""
    ></path>
    <path
      d="M171.05 317.45v.01c-1.8 14.92-2.76 32.61-2.76 53.59 0 74.1 87.36 131.75 87.36 131.75S343 445.15 343 371.05c0-20.61-.93-38.05-2.67-52.81M158.647 239.824c-27.764 0-24.396-41.029-49.971-43.512-25.794-2.542-43.441-16.053-43.441-38.135 38.845 0 58.588 0 93.411 24.624l.001 57.023zM353.353 239.824c27.764 0 24.396-41.029 49.971-43.512 25.794-2.542 43.441-16.053 43.441-38.135-38.845 0-58.588 0-93.411 24.624l-.001 57.023zM323.019 246.231s1.037 27.728-15.462 32.764L271.1 290.122s-.025-28.038 16.475-33.073l35.444-10.818zM188.112 246.231s-1.037 27.728 15.462 32.764l36.457 11.127s.025-28.038-16.475-33.073l-35.444-10.818zM99.15 63.25C141.93 28.4 196.52 7.5 256 7.5c59.49 0 114.09 20.91 156.87 55.76"
      style="stroke-width: 15; stroke-miterlimit: 10"
      fill="none"
      stroke="#000000"
      stroke-width="15"
      stroke-miterlimit="10"
      data-original="#000000"
      class=""
    ></path>
    <path
      d="M34.23 143.77C17.14 177.48 7.5 215.62 7.5 256c0 137.24 111.26 248.5 248.5 248.5 91.5 0 171.46-49.46 214.58-123.11M41.42 130.61a249.29 249.29 0 0 1 36.65-48.08M433.95 82.55C477.6 127.34 504.5 188.53 504.5 256c0 40.38-9.64 78.52-26.73 112.23M378.49 117.48a186.01 186.01 0 0 1 35.02 41.57M98.49 159.05a186.107 186.107 0 0 1 35.03-41.58"
      style="stroke-width: 15; stroke-miterlimit: 10"
      fill="none"
      stroke="#000000"
      stroke-width="15"
      stroke-miterlimit="10"
      data-original="#000000"
      class=""
    ></path>
    <path
      d="M83.58 188.94C75.46 209.74 71 232.36 71 256c0 76.4 46.55 142.12 112.77 170.32M166.05 94.38C192.69 79.49 223.38 71 256 71c32.64 0 63.33 8.5 89.98 23.39M428.42 188.94C436.54 209.74 441 232.36 441 256c0 76.75-46.98 142.73-113.69 170.7M275.412 365.941C266 365.941 256 373 256 384.765c0-11.765-10-18.824-19.412-18.824M256 181.559v15M256 211.559v15"
      style="stroke-width: 15; stroke-miterlimit: 10"
      fill="none"
      stroke="#000000"
      stroke-width="15"
      stroke-miterlimit="10"
      data-original="#000000"
      class=""
    ></path>
  </g>
</svg>

