
<svg
  xmlns="http://www.w3.org/2000/svg"
  version="1.1"
  xmlns:xlink="http://www.w3.org/1999/xlink"
  width="512"
  height="512"
  x="0"
  y="0"
  viewBox="0 0 512 512"
  style="enable-background: new 0 0 512 512"
  xml:space="preserve"
  class=""
>
  <g>
    <path
      d="M467.72 154.054H357.95V44.285c0-18.173-14.782-32.96-32.961-32.96H187.018c-18.179 0-32.966 14.787-32.966 32.96v109.77H44.288c-18.179 0-32.965 14.782-32.965 32.961v137.969c0 18.179 14.787 32.96 32.965 32.96h109.765v109.77c0 18.179 14.787 32.961 32.966 32.961H324.99c18.179 0 32.961-14.782 32.961-32.961v-109.77h109.77c18.169 0 32.961-14.781 32.961-32.96v-137.97c-.001-18.179-14.793-32.961-32.962-32.961zM174.442 44.285c0-6.933 5.638-12.571 12.576-12.571h137.971c6.933 0 12.571 5.638 12.571 12.571v188.949c0 6.933-5.639 12.571-12.571 12.571H187.018c-6.938 0-12.576-5.638-12.576-12.571zM44.288 337.564c-6.933 0-12.576-5.647-12.576-12.58V187.015c0-6.933 5.643-12.571 12.576-12.571h109.765v58.79c0 8.825 3.491 16.844 9.159 22.766-5.668 5.921-9.159 13.94-9.159 22.766v58.799H44.288zm293.273 130.15c0 6.934-5.639 12.571-12.571 12.571H187.018c-6.938 0-12.576-5.638-12.576-12.571V278.766c0-6.934 5.638-12.571 12.576-12.571h137.971c6.933 0 12.571 5.638 12.571 12.571v188.948zm142.729-142.73c0 6.933-5.638 12.58-12.57 12.58H357.95v-58.799c0-8.826-3.496-16.845-9.164-22.766 5.668-5.922 9.164-13.94 9.164-22.766v-58.79h109.77c6.933 0 12.57 5.638 12.57 12.571z"
      fill="#000"
      opacity="1"
      data-original="#000000"
      class=""
    ></path>
    <path
      d="M419.12 215.225c-22.481 0-40.78 18.288-40.78 40.775s18.299 40.785 40.78 40.785c22.482 0 40.78-18.298 40.78-40.785s-18.297-40.775-40.78-40.775zm0 61.17c-11.246 0-20.39-9.154-20.39-20.395s9.144-20.385 20.39-20.385 20.391 9.145 20.391 20.385-9.145 20.395-20.391 20.395zM286.59 337.564h-61.172c-7.565 0-12.506 7.969-9.119 14.752l30.585 61.171a10.2 10.2 0 0 0 9.119 5.628c3.86 0 7.388-2.182 9.122-5.628l30.58-61.171c3.386-6.773-1.545-14.752-9.115-14.752zm-30.588 48.56-14.09-28.18h28.182zM317.17 408.925c-5.628 0-10.189 4.563-10.189 10.19v30.59H286.59c-5.638 0-10.2 4.562-10.2 10.189 0 5.639 4.563 10.2 10.2 10.2h30.58c5.628 0 10.2-4.562 10.2-10.2v-40.779c0-5.628-4.572-10.19-10.2-10.19zM235.612 286.585c0-5.628-4.567-10.19-10.195-10.19h-30.585c-5.633 0-10.195 4.563-10.195 10.19v40.779c0 5.628 4.562 10.2 10.195 10.2 5.628 0 10.195-4.572 10.195-10.2v-30.58h20.39c5.628 0 10.195-4.571 10.195-10.199zM276.39 225.415c0 5.633 4.563 10.2 10.2 10.2h30.58c5.628 0 10.2-4.567 10.2-10.2v-40.78c0-5.628-4.572-10.19-10.2-10.19s-10.189 4.562-10.189 10.19v30.59H286.59c-5.638 0-10.2 4.562-10.2 10.19zM194.833 103.074c5.628 0 10.195-4.562 10.195-10.19v-30.59h20.39c5.628 0 10.195-4.562 10.195-10.19 0-5.633-4.567-10.2-10.195-10.2h-30.585c-5.633 0-10.195 4.567-10.195 10.2v40.78c-.001 5.628 4.561 10.19 10.195 10.19zM133.662 245.805h-40.78v-20.39c0-5.628-4.562-10.19-10.195-10.19-5.628 0-10.195 4.562-10.195 10.19v20.39H62.297c-5.628 0-10.195 4.562-10.195 10.195s4.567 10.195 10.195 10.195h10.195v20.391c0 5.628 4.567 10.199 10.195 10.199 5.633 0 10.195-4.571 10.195-10.199v-20.391h40.78c5.633 0 10.195-4.562 10.195-10.195s-4.562-10.195-10.195-10.195zM205.027 133.664c0 28.105 22.865 50.97 50.975 50.97 23.904 0 44.333-16.256 49.672-39.545 1.684-7.331-4.91-13.896-12.212-12.212-22.043 5.055-41.719-14.703-36.673-36.676 1.683-7.331-4.911-13.896-12.217-12.212-23.283 5.339-39.545 25.769-39.545 49.675zm31.103-23.309c3.203 22.293 20.883 39.974 43.178 43.181-5.647 6.644-14.045 10.708-23.306 10.708-16.864 0-30.585-13.716-30.585-30.58 0-9.268 4.069-17.661 10.713-23.309zM408.931 408.925h20.39v20.39h-20.39zM408.931 449.705h20.39v20.39h-20.39z"
      fill="#000"
      opacity="1"
      data-original="#000000"
      class=""
    ></path>
    <path
      d="M429.32 429.314h20.39v20.391h-20.39zM388.54 429.314h20.391v20.391H388.54zM72.492 52.104h20.39v20.39h-20.39zM72.492 92.884h20.39v20.39h-20.39zM92.882 72.494h20.39v20.39h-20.39zM52.102 72.494h20.39v20.39h-20.39zM429.32 52.104h20.39v20.39h-20.39zM429.32 92.884h20.39v20.39h-20.39zM449.71 72.494h20.381v20.39H449.71zM408.931 72.494h20.39v20.39h-20.39zM72.492 408.925h20.39v20.39h-20.39zM72.492 449.705h20.39v20.39h-20.39zM92.882 429.314h20.39v20.391h-20.39zM52.102 429.314h20.39v20.391h-20.39z"
      fill="#000"
      opacity="1"
      data-original="#000000"
      class=""
    ></path>
  </g>
</svg>
