
<svg
  xmlns="http://www.w3.org/2000/svg"
  version="1.1"
  xmlns:xlink="http://www.w3.org/1999/xlink"
  width="512"
  height="512"
  x="0"
  y="0"
  viewBox="0 0 64 64"
  style="enable-background: new 0 0 512 512"
  xml:space="preserve"
  class=""
>
  <g>
    <path
      d="M28 49H3a3.003 3.003 0 0 1-3-3V3a3.003 3.003 0 0 1 3-3h25a3.003 3.003 0 0 1 3 3v43a3.003 3.003 0 0 1-3 3zM3 2a1.001 1.001 0 0 0-1 1v43a1 1 0 0 0 1 1h25a1 1 0 0 0 1-1V3a1.001 1.001 0 0 0-1-1z"
      fill="#000"
      opacity="1"
      data-original="#000000"
    ></path>
    <path
      d="M28 52H3a3.003 3.003 0 0 1-3-3V6a1 1 0 0 1 2 0v43a1 1 0 0 0 1 1h25a1 1 0 0 0 1-1V6a1 1 0 0 1 2 0v43a3.003 3.003 0 0 1-3 3z"
      fill="#000"
      opacity="1"
      data-original="#000000"
    ></path>
    <path
      d="M28 55H3a3.003 3.003 0 0 1-3-3V9a1 1 0 0 1 2 0v43a1 1 0 0 0 1 1h25a1 1 0 0 0 1-1V9a1 1 0 0 1 2 0v43a3.003 3.003 0 0 1-3 3z"
      fill="#000"
      opacity="1"
      data-original="#000000"
    ></path>
    <path
      d="M28 58H3a3.003 3.003 0 0 1-3-3V12a1 1 0 0 1 2 0v43a1 1 0 0 0 1 1h25a1 1 0 0 0 1-1V12a1 1 0 0 1 2 0v43a3.003 3.003 0 0 1-3 3z"
      fill="#000"
      opacity="1"
      data-original="#000000"
    ></path>
    <path
      d="M28 61H3a3.003 3.003 0 0 1-3-3V15a1 1 0 0 1 2 0v43a1 1 0 0 0 1 1h25a1 1 0 0 0 1-1V15a1 1 0 0 1 2 0v43a3.003 3.003 0 0 1-3 3z"
      fill="#000"
      opacity="1"
      data-original="#000000"
    ></path>
    <path
      d="M28 64H3a3.003 3.003 0 0 1-3-3V18a1 1 0 0 1 2 0v43a1 1 0 0 0 1 1h25a1 1 0 0 0 1-1V18a1 1 0 0 1 2 0v43a3.003 3.003 0 0 1-3 3z"
      fill="#000"
      opacity="1"
      data-original="#000000"
    ></path>
    <path
      d="M25 49a1 1 0 0 1-1-1v-2H7v2a1 1 0 0 1-2 0v-3a1 1 0 0 1 1-1h19a1 1 0 0 1 1 1v3a1 1 0 0 1-1 1zM4 44H1a1 1 0 0 1 0-2h2V7H1a1 1 0 0 1 0-2h3a1 1 0 0 1 1 1v37a1 1 0 0 1-1 1zM25 5H6a1 1 0 0 1-1-1V1a1 1 0 0 1 2 0v2h17V1a1 1 0 0 1 2 0v3a1 1 0 0 1-1 1zM30 44h-3a1 1 0 0 1-1-1V6a1 1 0 0 1 1-1h3a1 1 0 0 1 0 2h-2v35h2a1 1 0 0 1 0 2zM15.5 33a9.5 9.5 0 1 1 9.5-9.5 9.51 9.51 0 0 1-9.5 9.5zm0-17a7.5 7.5 0 1 0 7.5 7.5 7.508 7.508 0 0 0-7.5-7.5z"
      fill="#000"
      opacity="1"
      data-original="#000000"
    ></path>
    <path
      d="M15.5 33c-2.763 0-3.5-5.972-3.5-9.5s.737-9.5 3.5-9.5 3.5 5.972 3.5 9.5-.737 9.5-3.5 9.5zm0-16.957c-.501.452-1.5 2.93-1.5 7.457s.999 7.005 1.5 7.457c.501-.452 1.5-2.93 1.5-7.457s-.999-7.005-1.5-7.457z"
      fill="#000"
      opacity="1"
      data-original="#000000"
    ></path>
    <path
      d="M21.497 29.268c-2.294 0-5.621-1.51-7.747-2.737a23.255 23.255 0 0 1-5.063-3.816c-1.53-1.606-2.006-2.94-1.415-3.965 1.382-2.394 6.921-.045 9.978 1.719a23.254 23.254 0 0 1 5.063 3.816c1.53 1.606 2.006 2.94 1.415 3.965a2.375 2.375 0 0 1-2.23 1.018zM9.042 19.77c.14.66 1.788 2.765 5.708 5.028s6.565 2.637 7.208 2.43c-.14-.66-1.788-2.765-5.708-5.028-3.92-2.263-6.567-2.638-7.208-2.43z"
      fill="#000"
      opacity="1"
      data-original="#000000"
    ></path>
    <path
      d="M9.503 29.268a2.375 2.375 0 0 1-2.23-1.018c-.592-1.025-.117-2.36 1.414-3.965a23.255 23.255 0 0 1 5.063-3.816c3.055-1.764 8.594-4.113 9.978-1.719.591 1.025.116 2.36-1.415 3.965a23.254 23.254 0 0 1-5.063 3.816c-2.125 1.227-5.453 2.737-7.747 2.737zm-.461-2.04c.642.209 3.288-.165 7.208-2.43 3.92-2.262 5.567-4.366 5.708-5.027-.642-.207-3.288.166-7.208 2.43-3.92 2.263-5.567 4.367-5.708 5.028zM61 64H36a3.003 3.003 0 0 1-3-3V18a3.003 3.003 0 0 1 3-3h25a3.003 3.003 0 0 1 3 3v43a3.003 3.003 0 0 1-3 3zM36 17a1.001 1.001 0 0 0-1 1v43a1 1 0 0 0 1 1h25a1 1 0 0 0 1-1V18a1.001 1.001 0 0 0-1-1z"
      fill="#000"
      opacity="1"
      data-original="#000000"
    ></path>
    <path
      d="M58 64a1 1 0 0 1-1-1v-2H40v2a1 1 0 0 1-2 0v-3a1 1 0 0 1 1-1h19a1 1 0 0 1 1 1v3a1 1 0 0 1-1 1zM37 59h-3a1 1 0 0 1 0-2h2V22h-2a1 1 0 0 1 0-2h3a1 1 0 0 1 1 1v37a1 1 0 0 1-1 1zM58 20H39a1 1 0 0 1-1-1v-3a1 1 0 0 1 2 0v2h17v-2a1 1 0 0 1 2 0v3a1 1 0 0 1-1 1zM63 59h-3a1 1 0 0 1-1-1V21a1 1 0 0 1 1-1h3a1 1 0 0 1 0 2h-2v35h2a1 1 0 0 1 0 2zM48.5 48a9.5 9.5 0 1 1 9.5-9.5 9.51 9.51 0 0 1-9.5 9.5zm0-17a7.5 7.5 0 1 0 7.5 7.5 7.508 7.508 0 0 0-7.5-7.5z"
      fill="#000"
      opacity="1"
      data-original="#000000"
    ></path>
    <path
      d="M48.5 48c-2.763 0-3.5-5.972-3.5-9.5s.737-9.5 3.5-9.5 3.5 5.972 3.5 9.5-.737 9.5-3.5 9.5zm0-16.957c-.501.452-1.5 2.93-1.5 7.457s.999 7.005 1.5 7.457c.501-.452 1.5-2.93 1.5-7.457s-.999-7.005-1.5-7.457z"
      fill="#000"
      opacity="1"
      data-original="#000000"
    ></path>
    <path
      d="M54.496 44.268c-2.294 0-5.621-1.51-7.746-2.737a23.238 23.238 0 0 1-5.063-3.815c-1.53-1.607-2.006-2.942-1.415-3.966 1.382-2.394 6.922-.046 9.978 1.719a23.238 23.238 0 0 1 5.063 3.815c1.53 1.607 2.006 2.942 1.415 3.966a2.376 2.376 0 0 1-2.232 1.018zM42.042 34.77c.142.662 1.79 2.766 5.708 5.028 3.922 2.264 6.571 2.634 7.208 2.43-.142-.662-1.79-2.766-5.708-5.028-3.922-2.264-6.571-2.632-7.208-2.43z"
      fill="#000"
      opacity="1"
      data-original="#000000"
    ></path>
    <path
      d="M42.504 44.268a2.375 2.375 0 0 1-2.232-1.018c-.591-1.024-.116-2.36 1.415-3.966a23.238 23.238 0 0 1 5.063-3.815c3.056-1.764 8.596-4.11 9.978-1.719.591 1.024.116 2.36-1.415 3.966a23.238 23.238 0 0 1-5.063 3.815c-2.125 1.227-5.452 2.737-7.746 2.737zm-.462-2.04c.637.205 3.286-.164 7.208-2.43 3.919-2.26 5.566-4.365 5.708-5.027-.637-.202-3.286.165-7.208 2.43-3.919 2.262-5.566 4.366-5.708 5.028z"
      fill="#000"
      opacity="1"
      data-original="#000000"
    ></path>
  </g>
</svg>
