
<svg
  xmlns="http://www.w3.org/2000/svg"
  version="1.1"
  xmlns:xlink="http://www.w3.org/1999/xlink"
  width="512"
  height="512"
  x="0"
  y="0"
  viewBox="0 0 50 60"
  style="enable-background: new 0 0 512 512"
  xml:space="preserve"
  class=""
>
  <g>
    <g fill="#000" fill-rule="nonzero">
      <path
        d="M31 0H5a5.006 5.006 0 0 0-5 5v42a5.006 5.006 0 0 0 5 5h9v3a5.006 5.006 0 0 0 5 5h26a5.006 5.006 0 0 0 5-5V13a5.006 5.006 0 0 0-5-5h-9V5a5.006 5.006 0 0 0-5-5zm5 40.843c.864 1.442 1.86 2.8 2.977 4.057a.1.1 0 0 1 .023.067 12.757 12.757 0 0 1-3-1.342zM36 47v-1.092c.827.422 1.693.764 2.586 1.021.167.047.34.071.514.071a1.857 1.857 0 0 0 1.568-.886A2.1 2.1 0 0 0 40.5 43.6C39.038 41.893 36 38.339 36 34s3.037-7.893 4.5-9.6a2.1 2.1 0 0 0 .167-2.513 1.842 1.842 0 0 0-2.079-.815c-.893.256-1.76.598-2.588 1.02V14h2.069A7 7 0 0 0 44 19.922l.009 28.147A7 7 0 0 0 38.078 54h-12.15a6.956 6.956 0 0 0-.606-2H31a5.006 5.006 0 0 0 5-5zm0-22.626a12.787 12.787 0 0 1 3-1.341.1.1 0 0 1-.022.067A26.912 26.912 0 0 0 36 27.155zM2 47V5a3 3 0 0 1 3-3h26a3 3 0 0 1 3 3v42a3 3 0 0 1-3 3H5a3 3 0 0 1-3-3zm43-37a3 3 0 0 1 3 3v42a3 3 0 0 1-3 3H19a3 3 0 0 1-3-3v-3h6.982c.51.666.843 1.451.967 2.281A1.985 1.985 0 0 0 25.922 56h12.156a2 2 0 0 0 1.972-1.712 5.016 5.016 0 0 1 4.239-4.238A2 2 0 0 0 46 48.078V19.922a2 2 0 0 0-1.712-1.972 5.019 5.019 0 0 1-4.238-4.238A2 2 0 0 0 38.078 12H36v-2z"
        fill="#ffffff"
        opacity="1"
        data-original="#000000"
        class=""
      ></path>
      <circle
        cx="6"
        cy="5"
        r="1"
        fill="#ffffff"
        opacity="1"
        data-original="#000000"
        class=""
      ></circle>
      <circle
        cx="30"
        cy="5"
        r="1"
        fill="#ffffff"
        opacity="1"
        data-original="#000000"
        class=""
      ></circle>
      <circle
        cx="44"
        cy="13"
        r="1"
        fill="#000"
        opacity="1"
        data-original="#000000"
        class=""
      ></circle>
      <circle
        cx="44"
        cy="55"
        r="1"
        fill="#000"
        opacity="1"
        data-original="#000000"
        class=""
      ></circle>
      <circle
        cx="20"
        cy="55"
        r="1"
        fill="#000"
        opacity="1"
        data-original="#000000"
        class=""
      ></circle>
      <circle
        cx="6"
        cy="47"
        r="1"
        fill="#000"
        opacity="1"
        data-original="#000000"
        class=""
      ></circle>
      <path
        d="M26.05 46.288a5.016 5.016 0 0 1 4.239-4.238A2 2 0 0 0 32 40.078V11.922a2 2 0 0 0-1.712-1.972 4.9 4.9 0 0 1-2.824-1.42 4.9 4.9 0 0 1-1.414-2.818A2 2 0 0 0 24.078 4H11.922A2 2 0 0 0 9.95 5.712a4.913 4.913 0 0 1-1.42 2.825A4.9 4.9 0 0 1 5.711 9.95 2 2 0 0 0 4 11.922v28.156c.006.991.735 1.83 1.716 1.973a5.01 5.01 0 0 1 4.233 4.23A1.985 1.985 0 0 0 11.922 48h12.156a2 2 0 0 0 1.972-1.712zM30 26a11.961 11.961 0 0 1-3.941 8.866l-2.391-7.46 5.853-4.732c.316 1.08.477 2.2.479 3.326zm-15.86 2.752 2.36 1.877-3.937 3.184zM8.863 22h5.285L13.1 25.369zm5.915 4.7 1.465-4.7h3.592l1.51 4.712-3.251 2.629zm2.088-6.7 1.148-3.682L19.193 20zM22 28.755l1.589 4.957-3.892-3.1zm1.013-3.392L21.935 22h5.238zM21.294 20 19.4 14.089A12 12 0 0 1 28.376 20zm-6.523 0H7.624a12 12 0 0 1 8.99-5.913zm-8.289 2.661 5.979 4.756-2.361 7.59a11.916 11.916 0 0 1-3.614-12.346zM18.1 31.905l5.741 4.566a11.949 11.949 0 0 1-11.513.1zM9.944 9.95A6.921 6.921 0 0 0 11.922 6l12.147-.008A7.022 7.022 0 0 0 30 11.929v6.9A13.991 13.991 0 0 0 18 12h-.006a13.993 13.993 0 0 0-12 6.837v-6.906a6.976 6.976 0 0 0 3.95-1.981zm.271 32.383A6.964 6.964 0 0 0 6 40.078V33.17a13.961 13.961 0 0 0 24.009-.007v6.906A7 7 0 0 0 24.078 46h-12.15a6.967 6.967 0 0 0-1.713-3.667z"
        fill="#000"
        opacity="1"
        data-original="#000000"
        class=""
      ></path>
      <circle
        cx="30"
        cy="47"
        r="1"
        fill="#000"
        opacity="1"
        data-original="#000000"
        class=""
      ></circle>
    </g>
  </g>
</svg>
