
<svg
  xmlns="http://www.w3.org/2000/svg"
  version="1.1"
  xmlns:xlink="http://www.w3.org/1999/xlink"
  width="512"
  height="512"
  x="0"
  y="0"
  viewBox="0 0 512 512"
  style="enable-background: new 0 0 512 512"
  xml:space="preserve"
  class=""
>
  <g>
    <path
      d="M152 416h-16a8.009 8.009 0 0 1-8-8v-16a8 8 0 0 0-16 0v16a24.027 24.027 0 0 0 24 24h16a8 8 0 0 0 0-16ZM152 112a8 8 0 0 0-5.657 13.657l20.973 20.972-7.161 35.8A8 8 0 0 0 172.8 190.4L200 170l27.2 20.4a8 8 0 0 0 12.645-7.969l-7.161-35.8 20.973-20.972A8 8 0 0 0 248 112h-27.056l-13.789-27.578a8 8 0 0 0-14.31 0L179.056 112Zm39.155 11.578L200 105.889l8.845 17.689A8 8 0 0 0 216 128h12.687l-10.344 10.343a8 8 0 0 0-2.188 7.226l3.894 19.468L204.8 153.6a8 8 0 0 0-9.6 0l-15.249 11.437 3.894-19.468a8 8 0 0 0-2.188-7.226L171.313 128H184a8 8 0 0 0 7.155-4.422ZM152 96a8 8 0 0 0 8-8V72a8.009 8.009 0 0 1 8-8h16a8 8 0 0 0 0-16h-16a24.027 24.027 0 0 0-24 24v16a8 8 0 0 0 8 8ZM216 64h16a8.009 8.009 0 0 1 8 8v16a8 8 0 0 0 16 0V72a24.027 24.027 0 0 0-24-24h-16a8 8 0 0 0 0 16ZM360 304a8 8 0 0 0-5.657 13.657l20.973 20.972-7.161 35.8A8 8 0 0 0 380.8 382.4L408 362l27.2 20.4a8 8 0 0 0 12.645-7.969l-7.161-35.8 20.973-20.972A8 8 0 0 0 456 304h-27.056l-13.789-27.578a8 8 0 0 0-14.31 0L387.056 304Zm39.155 11.578L408 297.889l8.845 17.689A8 8 0 0 0 424 320h12.687l-10.344 10.343a8 8 0 0 0-2.188 7.226l3.894 19.468L412.8 345.6a8 8 0 0 0-9.6 0l-15.249 11.437 3.894-19.468a8 8 0 0 0-2.188-7.226L379.313 320H392a8 8 0 0 0 7.155-4.422ZM360 288a8 8 0 0 0 8-8v-16a8.009 8.009 0 0 1 8-8h16a8 8 0 0 0 0-16h-16a24.027 24.027 0 0 0-24 24v16a8 8 0 0 0 8 8ZM424 256h16a8.009 8.009 0 0 1 8 8v16a8 8 0 0 0 16 0v-16a24.027 24.027 0 0 0-24-24h-16a8 8 0 0 0 0 16ZM456 384a8 8 0 0 0-8 8v16a8.009 8.009 0 0 1-8 8h-16a8 8 0 0 0 0 16h16a24.027 24.027 0 0 0 24-24v-16a8 8 0 0 0-8-8ZM376 432h16a8 8 0 0 0 0-16h-16a8.009 8.009 0 0 1-8-8v-16a8 8 0 0 0-16 0v16a24.027 24.027 0 0 0 24 24Z"
      fill="#000"
      opacity="1"
      data-original="#000000"
    ></path>
    <path
      d="M40 464h432a24.027 24.027 0 0 0 24-24V232a24.027 24.027 0 0 0-24-24H288V40a24.027 24.027 0 0 0-24-24H136a24.027 24.027 0 0 0-24 24v168H40a24.027 24.027 0 0 0-24 24v208a24.027 24.027 0 0 0 24 24Zm109.657-133.657L139.313 320H152a8 8 0 0 0 7.155-4.422l.845-1.69V348l-12.049 9.037 3.894-19.468a8 8 0 0 0-2.188-7.226ZM184 448a8.009 8.009 0 0 1-8-8V232a8.009 8.009 0 0 1 8-8h9.376a23.889 23.889 0 0 0-1.376 8v208a23.889 23.889 0 0 0 1.376 8H184Zm24-8V232a8.009 8.009 0 0 1 8-8h9.376a23.889 23.889 0 0 0-1.376 8v208a23.889 23.889 0 0 0 1.376 8H216a8.009 8.009 0 0 1-8-8Zm32 0V232a8.009 8.009 0 0 1 8-8h9.376a23.889 23.889 0 0 0-1.376 8v208a23.889 23.889 0 0 0 1.376 8H248a8.009 8.009 0 0 1-8-8Zm32 0V232a8.009 8.009 0 0 1 8-8h9.376a23.889 23.889 0 0 0-1.376 8v208a23.889 23.889 0 0 0 1.376 8H280a8.009 8.009 0 0 1-8-8Zm200-216a8.009 8.009 0 0 1 8 8v208a8.009 8.009 0 0 1-8 8H344a8.009 8.009 0 0 1-8-8V232a8.009 8.009 0 0 1 8-8Zm-150.624 0a23.889 23.889 0 0 0-1.376 8v208a23.889 23.889 0 0 0 1.376 8H312a8.009 8.009 0 0 1-8-8V232a8.009 8.009 0 0 1 8-8ZM128 40a8.009 8.009 0 0 1 8-8h128a8.009 8.009 0 0 1 8 8v168h-16v-8a8 8 0 0 0-16 0v8h-56a24.03 24.03 0 0 0-21.653 13.655A7.975 7.975 0 0 1 160 216v-16a8 8 0 0 0-16 0v16a24.038 24.038 0 0 0 16 22.624V256h-24a8.009 8.009 0 0 1-8-8Zm-16 184v24a23.858 23.858 0 0 0 2.345 10.341A7.975 7.975 0 0 0 112 264v16a8 8 0 0 0 16 0v-9.376a23.885 23.885 0 0 0 8 1.376h24v6.112L147.056 304H120a8 8 0 0 0-5.657 13.657l20.973 20.972-7.161 35.8A8 8 0 0 0 140.8 382.4L160 368v72a23.889 23.889 0 0 0 1.376 8H104a8.009 8.009 0 0 1-8-8V232a8.009 8.009 0 0 1 8-8Zm-30.624 0A23.889 23.889 0 0 0 80 232v208a23.889 23.889 0 0 0 1.376 8H72a8.009 8.009 0 0 1-8-8V232a8.009 8.009 0 0 1 8-8ZM32 232a8.009 8.009 0 0 1 8-8h9.376A23.889 23.889 0 0 0 48 232v208a23.889 23.889 0 0 0 1.376 8H40a8.009 8.009 0 0 1-8-8Z"
      fill="#000"
      opacity="1"
      data-original="#000000"
    ></path>
  </g>
</svg>

