<svg
  xmlns="http://www.w3.org/2000/svg"
  version="1.1"
  xmlns:xlink="http://www.w3.org/1999/xlink"
  width="512"
  height="512"
  x="0"
  y="0"
  viewBox="0 0 58 58"
  style="enable-background: new 0 0 512 512"
  xml:space="preserve"
  class=""
>
  <g>
    <path
      fill="#000000"
      fill-rule="nonzero"
      d="M43.5 36c-3.1 0-6.71 1.64-9.97 3.65a1 1 0 0 1-1.53-.84V29a1 1 0 0 1 1-1h10c.857-.002 1.69.28 2.37.8a1.035 1.035 0 0 0 1.63-.87v-5.86a1.035 1.035 0 0 0-1.63-.87c-.68.52-1.513.802-2.37.8H33a1 1 0 0 1-1-1v-5a1 1 0 0 1 1-1h8c.857-.002 1.69.28 2.37.8a1.035 1.035 0 0 0 1.63-.87V9.07a1.035 1.035 0 0 0-1.63-.87c-.68.52-1.513.802-2.37.8h-8a1 1 0 0 1-1-1V4c-.002-.857.28-1.69.8-2.37A1.035 1.035 0 0 0 31.93 0h-5.86a1.035 1.035 0 0 0-.87 1.63c.52.68.802 1.513.8 2.37v4a1 1 0 0 1-1 1h-8a3.889 3.889 0 0 1-2.37-.8 1.035 1.035 0 0 0-1.63.87v5.86a1.035 1.035 0 0 0 1.63.87A3.889 3.889 0 0 1 17 15h8a1 1 0 0 1 1 1v5a1 1 0 0 1-1 1H15a3.889 3.889 0 0 1-2.37-.8 1.035 1.035 0 0 0-1.63.87v5.86a1.035 1.035 0 0 0 1.63.87A3.889 3.889 0 0 1 15 28h10a1 1 0 0 1 1 1v9.81a1 1 0 0 1-1.53.84C21.21 37.64 17.6 36 14.5 36 6.49 36 0 40.92 0 47s6.49 11 14.5 11c4.42 0 9.88-3.34 13.91-6.34a.961.961 0 0 1 1.18 0c4.03 3 9.49 6.34 13.91 6.34C51.51 58 58 53.08 58 47s-6.49-11-14.5-11zM24.56 47.88a49.48 49.48 0 0 1-5.38 3.78A9.934 9.934 0 0 1 14.1 53C9.17 53 5 50.25 5 47s4.17-6 9.1-6c3.9 0 6.15 1.86 10.46 5.12a1.1 1.1 0 0 1 0 1.76zM43.9 53c-3.9 0-6.15-1.86-10.46-5.12a1.1 1.1 0 0 1 0-1.76 49.48 49.48 0 0 1 5.38-3.78A9.934 9.934 0 0 1 43.9 41c4.93 0 9.1 2.75 9.1 6s-4.17 6-9.1 6z"
      opacity="1"
      data-original="#000000"
      class=""
    ></path>
  </g>
</svg>
