
<svg
  xmlns="http://www.w3.org/2000/svg"
  version="1.1"
  xmlns:xlink="http://www.w3.org/1999/xlink"
  width="512"
  height="512"
  x="0"
  y="0"
  viewBox="0 0 682.667 682.667"
  style="enable-background: new 0 0 512 512"
  xml:space="preserve"
  class=""
>
  <g>
    <defs>
      <clipPath id="a" clipPathUnits="userSpaceOnUse">
        <path
          d="M0 512h512V0H0Z"
          fill="#000"
          opacity="1"
          data-original="#000000"
          class=""
        ></path>
      </clipPath>
    </defs>
    <g clip-path="url(#a)" transform="matrix(1.33333 0 0 -1.33333 0 682.667)">
      <path
        d="m0 0 101.8-12.29c13.93-1.68 23.86-14.35 22.17-28.28L82.58-381.52c-1.69-13.92-14.34-23.83-28.26-22.15l-54.84 6.62"
        style="
          stroke-width: 15;
          stroke-linecap: round;
          stroke-linejoin: round;
          stroke-miterlimit: 10;
          stroke-dasharray: none;
          stroke-opacity: 1;
        "
        transform="translate(380.34 453.7)"
        fill="none"
        stroke="#000"
        stroke-width="15"
        stroke-linecap="round"
        stroke-linejoin="round"
        stroke-miterlimit="10"
        stroke-dasharray="none"
        stroke-opacity=""
        data-original="#000000"
        opacity="1"
        class=""
      ></path>
      <path
        d="m0 0 22.593 186.121c-13.71 1.65-23.49 14.12-21.82 27.83l-69.92 8.44"
        style="
          stroke-width: 15;
          stroke-linecap: round;
          stroke-linejoin: round;
          stroke-miterlimit: 10;
          stroke-dasharray: none;
          stroke-opacity: 1;
        "
        transform="translate(451.257 203.49)"
        fill="none"
        stroke="#000"
        stroke-width="15"
        stroke-linecap="round"
        stroke-linejoin="round"
        stroke-miterlimit="10"
        stroke-dasharray="none"
        stroke-opacity=""
        data-original="#000000"
        opacity="1"
        class=""
      ></path>
      <path
        d="m0 0 28.94-3.49c1.66 13.7 14.11 23.47 27.81 21.81l8.063 66.429"
        style="
          stroke-width: 15;
          stroke-linecap: round;
          stroke-linejoin: round;
          stroke-miterlimit: 10;
          stroke-dasharray: none;
          stroke-opacity: 1;
        "
        transform="translate(382.22 83.95)"
        fill="none"
        stroke="#000"
        stroke-width="15"
        stroke-linecap="round"
        stroke-linejoin="round"
        stroke-miterlimit="10"
        stroke-dasharray="none"
        stroke-opacity=""
        data-original="#000000"
        opacity="1"
        class=""
      ></path>
      <path
        d="m0 0-101.63-12.27c-13.93-1.68-23.86-14.35-22.17-28.28l41.39-340.95c1.69-13.92 14.34-23.83 28.26-22.15l55 6.64"
        style="
          stroke-width: 15;
          stroke-linecap: round;
          stroke-linejoin: round;
          stroke-miterlimit: 10;
          stroke-dasharray: none;
          stroke-opacity: 1;
        "
        transform="translate(131.49 453.68)"
        fill="none"
        stroke="#000"
        stroke-width="15"
        stroke-linecap="round"
        stroke-linejoin="round"
        stroke-miterlimit="10"
        stroke-dasharray="none"
        stroke-opacity=""
        data-original="#000000"
        opacity="1"
        class=""
      ></path>
      <path
        d="m0 0-29.05-3.51c-1.66 13.7-14.11 23.47-27.81 21.81l-34.88 287.34c13.71 1.65 23.49 14.12 21.82 27.83l69.81 8.43"
        style="
          stroke-width: 15;
          stroke-linecap: round;
          stroke-linejoin: round;
          stroke-miterlimit: 10;
          stroke-dasharray: none;
          stroke-opacity: 1;
        "
        transform="translate(129.89 83.97)"
        fill="none"
        stroke="#000"
        stroke-width="15"
        stroke-linecap="round"
        stroke-linejoin="round"
        stroke-miterlimit="10"
        stroke-dasharray="none"
        stroke-opacity=""
        data-original="#000000"
        opacity="1"
        class=""
      ></path>
      <path
        d="m0 0 113.24-.05c15.35-.006 27.793-12.448 27.799-27.799l.132-375.995c.006-15.365-12.452-27.823-27.817-27.818l-196.712.07c-15.35.005-27.793 12.448-27.799 27.798l-.133 375.995C-111.295-12.433-98.837.024-83.471.019L-35 .002"
        style="
          stroke-width: 15;
          stroke-linecap: round;
          stroke-linejoin: round;
          stroke-miterlimit: 10;
          stroke-dasharray: none;
          stroke-opacity: 1;
        "
        transform="translate(241.06 471.821)"
        fill="none"
        stroke="#000"
        stroke-width="15"
        stroke-linecap="round"
        stroke-linejoin="round"
        stroke-miterlimit="10"
        stroke-dasharray="none"
        stroke-opacity=""
        data-original="#000000"
        opacity="1"
        class=""
      ></path>
      <path
        d="m0 0 132.328-.047c.006-16.56 13.429-29.983 29.989-29.989l.111-311.611c-16.577.005-30.017-13.435-30.011-30.011l-132.328.047c-.006 16.56-13.429 29.983-29.989 29.989l-.111 311.611C-13.434-30.017.006-16.577 0 0Z"
        style="
          stroke-width: 15;
          stroke-linecap: round;
          stroke-linejoin: round;
          stroke-miterlimit: 10;
          stroke-dasharray: none;
          stroke-opacity: 1;
        "
        transform="translate(189.792 441.83)"
        fill="none"
        stroke="#000"
        stroke-width="15"
        stroke-linecap="round"
        stroke-linejoin="round"
        stroke-miterlimit="10"
        stroke-dasharray="none"
        stroke-opacity=""
        data-original="#000000"
        opacity="1"
        class=""
      ></path>
      <path
        d="M0 0c-15.145 17.475-18.527 41.139-10.845 61.338.701 1.843-1.132 3.64-2.953 2.884a60.54 60.54 0 0 1-16.481-10.201C-55.691 31.997-58.171-7.19-35.757-32.258c22.036-24.644 59.853-27.12 84.925-5.391a60.547 60.547 0 0 1 12.436 14.854c1.009 1.7-.501 3.775-2.431 3.342C38.088-24.187 15.145-17.475 0 0Z"
        style="
          stroke-width: 15;
          stroke-linecap: round;
          stroke-linejoin: round;
          stroke-miterlimit: 10;
          stroke-dasharray: none;
          stroke-opacity: 1;
        "
        transform="translate(250.575 247.868)"
        fill="none"
        stroke="#000"
        stroke-width="15"
        stroke-linecap="round"
        stroke-linejoin="round"
        stroke-miterlimit="10"
        stroke-dasharray="none"
        stroke-opacity=""
        data-original="#000000"
        opacity="1"
        class=""
      ></path>
    </g>
  </g>
</svg>
