
<svg
  xmlns="http://www.w3.org/2000/svg"
  version="1.1"
  xmlns:xlink="http://www.w3.org/1999/xlink"
  width="512"
  height="512"
  x="0"
  y="0"
  viewBox="0 0 60 50"
  style="enable-background: new 0 0 512 512"
  xml:space="preserve"
  class=""
>
  <g>
    <g fill="#000" fill-rule="nonzero">
      <path
        d="M19 14.35a1 1 0 0 0 1-1V6h20v7.34a1 1 0 0 0 2 0V5a1 1 0 0 0-1-1H19a1 1 0 0 0-1 1v8.35a1 1 0 0 0 1 1zM19 42h22a1 1 0 0 0 1-1v-8.81a1 1 0 0 0-2 0V40H20v-7.81a1 1 0 0 0-2 0V41a1 1 0 0 0 1 1zM6.563 17.758l4.779-1.738a1 1 0 0 0-.684-1.879l-5.72 2.08a1 1 0 0 0-.6 1.282l5.72 15.7a1 1 0 1 0 1.878-.685z"
        fill="#000"
        opacity="1"
        data-original="#000000"
        class=""
      ></path>
      <path
        d="M59.615 14.854a3.952 3.952 0 0 0-2.253-2.054L46 8.66V4a4 4 0 0 0-4-4H18a4 4 0 0 0-4 4v4.66L2.643 12.8a4 4 0 0 0-2.4 5.123l10.719 29.452a4.013 4.013 0 0 0 5.12 2.385L26.406 46h7.188l10.326 3.761a4.014 4.014 0 0 0 5.119-2.389L59.761 17.92a3.98 3.98 0 0 0-.146-3.066zM16 4a2 2 0 0 1 2-2h24a2 2 0 0 1 2 2v38a2 2 0 0 1-2 2H18a2 2 0 0 1-2-2zm-.6 43.88a2.013 2.013 0 0 1-2.56-1.192L2.12 17.24a2 2 0 0 1 1.2-2.56L14 10.789V42a4 4 0 0 0 4 4h2.563zm42.481-30.642-10.72 29.448a2.007 2.007 0 0 1-2.559 1.2L39.437 46H42a4 4 0 0 0 4-4V10.789l10.682 3.893a2 2 0 0 1 1.2 2.556z"
        fill="#000"
        opacity="1"
        data-original="#000000"
        class=""
      ></path>
      <path
        d="m55.062 16.221-5.72-2.08a1 1 0 0 0-.684 1.879l4.78 1.738-5.377 14.76a1 1 0 1 0 1.878.685l5.72-15.7a1 1 0 0 0-.6-1.282zM26 34h8a3 3 0 0 0 3-3v-1h1a3 3 0 0 0 3-3v-5c0-6.075-4.925-11-11-11s-11 4.925-11 11v5a3 3 0 0 0 3 3h1v1a3 3 0 0 0 3 3zm-4-6a1 1 0 0 1-1-1v-5a9 9 0 0 1 18 0v5a1 1 0 0 1-1 1h-1v-1a1 1 0 0 0-2 0v4a1 1 0 0 1-1 1h-1v-2a1 1 0 0 0-2 0v2h-2v-2a1 1 0 0 0-2 0v2h-1a1 1 0 0 1-1-1v-4a1 1 0 0 0-2 0v1z"
        fill="#000"
        opacity="1"
        data-original="#000000"
        class=""
      ></path>
      <path
        d="M26 25a3 3 0 0 0 3-3v-2a1 1 0 0 0-1-1h-4a1 1 0 0 0-1 1v2a3 3 0 0 0 3 3zm-1-4h2v1a1 1 0 0 1-2 0zM34 25a3 3 0 0 0 3-3v-2a1 1 0 0 0-1-1h-4a1 1 0 0 0-1 1v2a3 3 0 0 0 3 3zm-1-4h2v1a1 1 0 0 1-2 0zM28 26a1 1 0 0 0 1 1h2a1 1 0 0 0 0-2h-2a1 1 0 0 0-1 1z"
        fill="#000"
        opacity="1"
        data-original="#000000"
        class=""
      ></path>
    </g>
  </g>
</svg>

