
<svg
  xmlns="http://www.w3.org/2000/svg"
  version="1.1"
  xmlns:xlink="http://www.w3.org/1999/xlink"
  width="512"
  height="512"
  x="0"
  y="0"
  viewBox="0 0 512 512"
  style="enable-background: new 0 0 512 512"
  xml:space="preserve"
  class=""
>
  <g>
    <path
      d="m320.309 205.285 21.504-66.02-59.18 40.344zM201.375 234.992l18.59 57.004h72.07l18.59-57.004L256 197.758zM346.117 222.879l73.856 50.344C420.566 267.508 421 261.766 421 256c0-44.016-17.293-85.176-47.883-115.96zM394.266 291.996l-57.832-39.41-12.844 39.41zM229.367 179.61l-59.18-40.344 21.504 66.02zM188.41 291.996l-12.844-39.41-57.832 39.41zM138.883 140.04C108.293 170.823 91 211.983 91 256c0 5.766.434 11.508 1.027 17.223l73.856-50.344zM331.785 109.797c-47.015-24.055-104.555-24.055-151.574 0L256 161.46zm0 0"
      fill="#000000"
      opacity="1"
      data-original="#000000"
    ></path>
    <path
      d="M256 0C115.39 0 0 115.39 0 256s115.39 256 256 256 256-115.39 256-256S396.61 0 256 0zm235.531 322.008h-52.629C412.98 393.84 348.25 443.465 272.18 449.766L256 500.414l-16.18-50.648c-76.07-6.301-140.8-55.926-166.722-127.758h-52.63l44.196-30.133C62.457 280.059 61 268.078 61 256c0-57.113 24.695-110.035 67.7-147.21L114.405 64.94 152.93 91.2c62.175-38.715 143.965-38.715 206.14 0l38.524-26.258L383.3 108.79C426.305 145.965 451 198.887 451 256c0 12.078-1.457 24.059-3.664 35.875zm0 0"
      fill="#000000"
      opacity="1"
      data-original="#000000"
    ></path>
    <path
      d="M282.336 418.602c55.32-8.864 102.047-45.13 124.52-96.594h-93.04zM105.145 322.008c22.472 51.465 69.199 87.73 124.52 96.594l-31.481-96.594zM256 402.586l26.266-80.578h-52.532zm0 0"
      fill="#000000"
      opacity="1"
      data-original="#000000"
    ></path>
  </g>
</svg>

