
<svg
  xmlns="http://www.w3.org/2000/svg"
  version="1.1"
  xmlns:xlink="http://www.w3.org/1999/xlink"
  width="512"
  height="512"
  x="0"
  y="0"
  viewBox="0 0 512 512"
  style="enable-background: new 0 0 512 512"
  xml:space="preserve"
  class=""
>
  <g>
    <path
      d="M437.02 74.98C388.667 26.628 324.38 0 256 0S123.333 26.628 74.98 74.98C26.628 123.333 0 187.62 0 256s26.628 132.667 74.98 181.02C123.333 485.372 187.62 512 256 512s132.667-26.628 181.02-74.98C485.372 388.667 512 324.38 512 256s-26.628-132.667-74.98-181.02zM256 33.391c40.461 0 78.433 10.856 111.164 29.801L256 143.957 144.836 63.191c32.731-18.944 70.703-29.8 111.164-29.8zm78.156 167.35-49.751-36.147 80.499-58.485-30.748 94.632zm17.554 54.028 80.497 58.485h-99.5l19.003-58.485zM177.845 200.74l-30.748-94.631 80.499 58.485-49.751 36.146zm1.447 112.513h-99.5l80.498-58.485 19.002 58.485zM256 185.23l67.306 48.9-25.708 79.122h-83.194l-25.708-79.122L256 185.23zM33.391 256c0-65.496 28.438-124.472 73.609-165.241l42.441 130.619-111.22 80.804A222.737 222.737 0 0 1 33.391 256zm19.308 90.644h137.443l42.479 130.738c-80.392-8.428-148.178-59.822-179.922-130.738zm172.553 0h61.496L256 441.276l-30.748-94.632zm54.125 130.738 42.479-130.738H459.3c-31.743 70.916-99.529 122.31-179.923 130.738zm83.182-256.005L405 90.758c45.17 40.771 73.608 99.747 73.608 165.242 0 15.831-1.674 31.277-4.831 46.181l-111.218-80.804z"
      fill="#000000"
      opacity="1"
      data-original="#000000"
      class=""
    ></path>
  </g>
</svg>
