<svg
  xmlns="http://www.w3.org/2000/svg"
  version="1.1"
  xmlns:xlink="http://www.w3.org/1999/xlink"
  width="512"
  height="512"
  x="0"
  y="0"
  viewBox="0 0 511.948 511"
  style="enable-background: new 0 0 512 512"
  xml:space="preserve"
  class=""
>
  <g>
    <path
      d="M484.648 274.633c10.168-81.383-24.128-161.961-89.828-211.055l15.989-52.05a8.53 8.53 0 0 0-3.211-9.477 8.526 8.526 0 0 0-10.004.09l-47.336 34.875a230.525 230.525 0 0 0-188.5 0l-47.336-34.84a8.538 8.538 0 0 0-10.008-.094 8.543 8.543 0 0 0-3.21 9.48l15.991 52.051C51.508 112.7 17.211 193.262 27.363 274.633l-23.89 17.582a8.533 8.533 0 0 0 5.066 15.402h25.313C59.895 403.734 144.84 472.176 244.3 477.172l3.547 11.539a8.533 8.533 0 0 0 8.16 6.023h.05a8.532 8.532 0 0 0 8.133-6.125l3.36-11.425c99.547-4.88 184.601-73.36 210.613-169.567h25.309a8.532 8.532 0 0 0 5.063-15.36zM469.34 247.27c0 5.195-.215 10.425-.598 15.656l-16.547-12.176c0-1.16.078-2.32.078-3.48a195.2 195.2 0 0 0-68.265-148.48l5.476-17.83a213.622 213.622 0 0 1 79.856 166.31zM256.008 33.934a211.645 211.645 0 0 1 78.273 14.832l-16.785 12.347a195.539 195.539 0 0 0-122.98 0L177.73 48.766a211.65 211.65 0 0 1 78.278-14.832zm44.37 39.8-44.37 32.641-44.375-32.64a179.28 179.28 0 0 1 88.746 0zm-58.769 43.23-54.816 40.345a8.533 8.533 0 0 0-3.64 7.882 8.529 8.529 0 0 0 13.754 5.855l59.1-43.483 59.102 43.519a8.531 8.531 0 0 0 13.754-5.855 8.528 8.528 0 0 0-3.644-7.883l-54.817-40.38L386.906 31.23 366.02 99.18v.105l-49.16 159.863a8.518 8.518 0 0 0 1.906 8.317 8.533 8.533 0 0 0 8.156 2.512 8.537 8.537 0 0 0 6.25-5.813l45.312-147.457a178.036 178.036 0 0 1 56.465 121.355l-45.566-33.539a8.533 8.533 0 0 0-10.121 13.73l98.218 72.278H237.695a8.534 8.534 0 1 0 0 17.067h186.88C402.27 369.426 348.03 414.172 283.09 424.316l25.097-85.41a8.534 8.534 0 1 0-16.375-4.8l-35.984 122.453L146.02 99.293v-.121L125.105 31.23zm-86.425 173.587H34.53l107.387-79.028a8.532 8.532 0 0 0 1.684-11.84 8.53 8.53 0 0 0-11.805-1.898l-54.735 40.278a178.07 178.07 0 0 1 56.465-121.356l94.508 307.527c-64.566-10.476-118.387-55.109-140.629-116.617h67.778a8.534 8.534 0 1 0 0-17.066zM42.672 247.27a213.637 213.637 0 0 1 79.855-166.317l5.48 17.836a195.184 195.184 0 0 0-68.269 148.48c0 1.196.055 2.313.078 3.481L43.27 262.926c-.383-5.23-.598-10.461-.598-15.656zm8.902 60.347H69.45c23.848 72.946 87.867 125.418 164.07 134.485l5.422 17.648C151 452.746 76.488 392.242 51.574 307.617zM272.672 459.75l5.187-17.648c76.477-8.774 140.82-61.325 164.696-134.504h17.918C435.555 392.402 360.8 452.965 272.672 459.75zm0 0"
      fill="#000000"
      opacity="1"
      data-original="#000000"
    ></path>
  </g>
</svg>
