<svg
  xmlns="http://www.w3.org/2000/svg"
  version="1.1"
  xmlns:xlink="http://www.w3.org/1999/xlink"
  width="512"
  height="512"
  x="0"
  y="0"
  viewBox="0 0 500 500"
  style="enable-background: new 0 0 512 512"
  xml:space="preserve"
  class=""
>
  <g>
    <path
      d="M241.338 345.759c1.34-4.268-5.236-5.451-6.29-1.431-1.239 4.61 5.123 5.917 6.284 1.445v.019c0-.012.004-.022.006-.033zm-.011-.03c0-.021.015-.042.02-.063v.025z"
      fill="#000"
      opacity="1"
      data-original="#000000"
      class=""
    ></path>
    <path
      d="M491.938 81.628c1.668-3.791 4.084-9.5 2.27-12.769-.648-1.919-3.764-2.145-4.741-.359-20.735 20.584-45.009 38.753-72.265 49.827 6.439-6.959 10.8-16.258 14.244-24.681 7.231-18.2 13.688-36.87 17.592-56.1.857-2.962-2.7-4.357-4.493-2.568-3.776.583-6.721 18.515-8.177 22.676-9.834 31.195-20.158 58.568-52.36 68.762-59.57 18.858-76.238 48.466-99.764 75.807-8.041 8.976-15.49 18.611-25.09 26.006-.33-8.807-3.45-17.188-5.834-25.686-7.9-26.49-7.9-58.568 12-79.81 9.252-7.811 19.989-13.827 30.067-20.492 20.9-12.977 34.127-33.839 44.2-55.789v40.977l-3.149 9.692h-10.795a3.8 3.8 0 0 0-2.236 6.88l8.731 6.344-3.338 10.263a3.8 3.8 0 0 0 5.854 4.253l8.729-6.343 8.732 6.343a3.8 3.8 0 0 0 5.853-4.253l-3.336-10.263 8.734-6.345a3.8 3.8 0 0 0-2.236-6.88h-10.791l-3.149-9.692V27c-.081-4.975-7.484-5.013-7.6-.03-37.751 78.289-90.824 71.87-116.142 126.993-27.832-37.25-66.5-65.742-92.942-104.057-4.6-7.55-7.124-15.56-9.684-23.95a2.688 2.688 0 0 0-2.4-1.938 3.808 3.808 0 0 0-5.635 3.314v50.446l-4.019 12.37H95.156a3.8 3.8 0 0 0-2.237 6.88l11.009 8-4.206 12.94a3.8 3.8 0 0 0 5.854 4.253l11.009-8 11.007 8a3.8 3.8 0 0 0 5.854-4.252l-4.206-12.94 11.009-8a3.8 3.8 0 0 0-2.236-6.88h-13.607l-4.018-12.369V53.45c7.931 19.8 27.295 35.193 42.186 49.176 34.833 33.5 62.555 72.14 55.428 122.713a12.045 12.045 0 0 1-4 5.792c-127.831-43.008-100.148-125.7-177.586-151.9-3.855-.808-5.795 4.573-2.043 6.113 31.729 15.511 37.438 51.479 55.153 78.784-7.8-3.431-16.122-4.084-24.448-5.3a66.77 66.77 0 0 1-25.125-8.647c-5.205-4.718-9.908-10.145-15.511-14.263-2.426-1.783-6 1.776-4.2 4.2 3.674 5.822 8.936 10.636 13.866 15.427v53.425L28.6 225.9a1.182 1.182 0 0 1-1.126.817H8.924c-3.568-.113-5.207 4.87-2.236 6.881L21.7 244.507a1.181 1.181 0 0 1 .43 1.323l-5.73 17.645c-1.211 3.36 3.024 6.456 5.854 4.252l15.009-10.9a1.181 1.181 0 0 1 1.39 0l15.01 10.9a3.8 3.8 0 0 0 5.854-4.252l-5.739-17.645a1.18 1.18 0 0 1 .431-1.323l15.009-10.9c2.955-2 1.349-7-2.236-6.881H48.429a1.181 1.181 0 0 1-1.129-.826l-5.595-17.217v-46.978c9.053 6.658 20.2 6.592 30.618 9.512 23.227 6.939 40.229 25.57 58.592 40.292v27.2c.085 5 7.522 5 7.607 0v-21.133c22.038 16.819 50.295 29.806 62.339 56.37 6.5 14.372 7.117 30.636 7.242 46.154.139 17.446-.255 34.909-.79 52.346-.58 18.9-.813 38.1-3.017 56.9-1.978 20.152-9.538 33.586-29.58 39.224-9.627.15-19.694-.778-29.23.651-3.251.492-3.253 6.076 0 6.569 8.57 1.3 17.668.595 26.329.636 26.646-.433 135.054.258 135.054.258a67.608 67.608 0 0 0 7.22-.046c3.924.407 5.417-5.893 1.207-7.042a58.652 58.652 0 0 1-20.219-9.562 91.423 91.423 0 0 1-21.329-58.13c-.952-29.729-.567-59.472.937-89.173 8.632-53.912 45.1-106.211 104.39-105.811 25.9-.157 52.9 1.182 75.888-12.077v53.2l-5.546 17.073a1.181 1.181 0 0 1-1.125.818h-18.55c-3.568-.113-5.207 4.87-2.235 6.881l15.009 10.9a1.179 1.179 0 0 1 .43 1.323l-5.733 17.645c-1.211 3.36 3.024 6.456 5.854 4.252l15.009-10.905a1.181 1.181 0 0 1 1.39 0l15.01 10.905a3.8 3.8 0 0 0 5.854-4.252l-5.73-17.646a1.181 1.181 0 0 1 .429-1.323l15.011-10.9c2.955-2 1.35-7-2.236-6.881h-18.557a1.181 1.181 0 0 1-1.125-.817l-5.548-17.074c-.014-.138.027-60.46-.014-60.585.831-2.777-2.667-5.766-5.7-4.3-41.021 22.467-90.3.882-133.328 16.915 41.781-62.238 136.407-49.389 168.406-118.444zm-443.509 152.7h6.847c-10.379 6.913-10.808 8.819-6.617 20.365-4.9-3.558-9.676-8.361-15.873-4.025l-5.539 4.025c4.334-11.694 3.56-13.487-6.617-20.365 6.09-.016 12.7 1.1 15.207-6.074l2.116-6.512c1.897 5.782 2.877 12.424 10.476 12.586zm279.215-49.108c-36.859 41.548-67.339 90.263-87.438 141.967-1.358 3.728 4.372 5.1 5.839 1.61q5.359-12.768 11.266-25.164c-4.237 28.676-2.216 58.268-3.207 87.234-.241 21.856-4.121 52.687 9.8 70.76a4.075 4.075 0 0 1-3.2 6.585c-25.574.035-54.133.473-65.06.256 18.919-17.553 17.06-50.916 18.053-74.718.733-17.558 1.335-35.122 1.457-52.695.121-17.489 1.173-35.378-2.164-52.684-4.753-29.048-28.449-48.484-51.843-63.573-25.791-16.692-49.1-37.568-65.28-63.925-11.458-17.838-17.38-38.634-29.467-56.027 10.948 10.792 18.654 24.5 26.868 37.358 28.614 55.058 77.04 81.322 133.353 102.173a108.053 108.053 0 0 1 9.956 6.551c3.285 2.438 6.269 6.078 10 7.744 2.657 1.187 5.638-1.293 4.112-4.112a15.1 15.1 0 0 0-3.4-4.033 16.044 16.044 0 0 1-2.257-5.21c13.03-2.8 24.988-16.975 32.872-25.667 13.338-14.705 25.731-30.324 39.89-44.264 15.455-15.257 33.143-27.375 53.679-34.688 47.921-15.247 69.711-21.127 109.64-54.69a2.37 2.37 0 0 0-.345 2.009c-34.392 53.055-113.911 48.24-153.124 97.203z"
      fill="#000"
      opacity="1"
      data-original="#000000"
      class=""
    ></path>
    <path
      d="M352.538 389.037a1.181 1.181 0 0 1 1.389 0l15.01 10.906c2.825 2.194 7.071-.882 5.853-4.252l-5.734-17.646a1.183 1.183 0 0 1 .431-1.323l15.01-10.9c2.954-2 1.348-7-2.236-6.88h-18.553a1.18 1.18 0 0 1-1.125-.817l-5.547-17.074V258.74a3.8 3.8 0 0 0-7.607 0v82.306l-5.547 17.073a1.181 1.181 0 0 1-1.125.818H324.2c-3.568-.113-5.208 4.869-2.236 6.88l15.009 10.9a1.183 1.183 0 0 1 .431 1.323l-5.734 17.645c-1.212 3.361 3.024 6.456 5.852 4.253zm-16.629-22.493c6.087-.016 12.7 1.1 15.208-6.074l2.115-6.512c1.9 5.786 2.875 12.421 10.476 12.586h6.847c-10.38 6.912-10.808 8.819-6.617 20.364-4.9-3.557-9.677-8.36-15.871-4.025l-5.541 4.025c4.335-11.691 3.558-13.489-6.617-20.364zM136.861 261.94c4.157-2.882-.024-9.138-4.276-6.4-4.157 2.883.023 9.139 4.276 6.4zM355.37 235.731c4.158-2.881-.023-9.137-4.276-6.4-4.157 2.883.024 9.139 4.276 6.4zM114.7 289.677c-12.268 26.187 15.27 53.516 41.06 41.83a1.552 1.552 0 0 0-.55-2.964c-14.184-.562-23.868-16.149-17.693-29.195 5.2-12.047 21.683-15.948 31.709-7.565a1.552 1.552 0 0 0 2.378-1.851c-10.59-24.018-45.768-24.507-56.904-.255z"
      fill="#000"
      opacity="1"
      data-original="#000000"
      class=""
    ></path>
  </g>
</svg>
