
<svg
  xmlns="http://www.w3.org/2000/svg"
  version="1.1"
  xmlns:xlink="http://www.w3.org/1999/xlink"
  width="512"
  height="512"
  x="0"
  y="0"
  viewBox="0 0 511.5 511.5"
  style="enable-background: new 0 0 512 512"
  xml:space="preserve"
  class=""
>
  <g>
    <path
      d="M255.75 218.178c-10.339 0-18.75-8.411-18.75-18.75v-22.5c0-10.339 8.411-18.75 18.75-18.75s18.75 8.411 18.75 18.75v22.5c0 10.339-8.411 18.75-18.75 18.75z"
      style="stroke-width: 15; stroke-miterlimit: 10"
      fill="none"
      stroke="#000000"
      stroke-width="15"
      stroke-miterlimit="10"
      data-original="#000000"
    ></path>
    <path
      d="M189.65 102v99.4c0 36.51 29.59 66.1 66.1 66.1 18.26 0 34.78-7.4 46.74-19.36 11.96-11.96 19.36-28.48 19.36-46.74v-26.44c0-36.51-29.59-66.1-66.1-66.1-7.73 0-15.14 1.33-22.03 3.77V74.7c0-12.17 9.86-22.03 22.03-22.03 6.08 0 11.59 2.47 15.58 6.45 3.98 3.99 6.45 9.5 6.45 15.58l44.07-1.1c0-36.51-29.59-66.1-66.1-66.1-18.26 0-34.78 7.4-46.74 19.36-11.96 11.96-19.36 28.48-19.36 46.74V87M178.708 333.042c8.215 8.215 8.216 21.582 0 29.798l-17.879 17.879c-8.216 8.216-21.583 8.215-29.798 0s-8.216-21.582 0-29.798l17.879-17.879c8.216-8.216 21.583-8.215 29.798 0z"
      style="stroke-width: 15; stroke-miterlimit: 10"
      fill="none"
      stroke="#000000"
      stroke-width="15"
      stroke-miterlimit="10"
      data-original="#000000"
    ></path>
    <path
      d="m136.99 468.24 73.97-73.97c25.81-25.81 25.81-67.66 0-93.48-12.91-12.91-29.83-19.36-46.74-19.36-16.92 0-33.83 6.45-46.74 19.36l-18.7 18.7c-25.81 25.81-25.81 67.67 0 93.48a65.938 65.938 0 0 0 18.25 12.91L90.21 452.7c-8.6 8.6-22.55 8.6-31.16 0-4.3-4.3-6.45-9.94-6.45-15.58 0-5.64 2.15-11.28 6.45-15.58l-31.94-30.38c-25.81 25.81-25.81 67.66 0 93.48C40.02 497.54 56.94 504 73.85 504c16.92 0 33.84-6.46 46.74-19.36l5.8-5.79M332.792 333.042c-8.215 8.215-8.216 21.582 0 29.798l17.879 17.879c8.216 8.216 21.583 8.215 29.798 0s8.216-21.582 0-29.798l-17.879-17.879c-8.216-8.216-21.583-8.215-29.798 0z"
      style="stroke-width: 15; stroke-miterlimit: 10"
      fill="none"
      stroke="#000000"
      stroke-width="15"
      stroke-miterlimit="10"
      data-original="#000000"
    ></path>
    <path
      d="m382.43 476.16 8.48 8.48c12.9 12.9 29.82 19.36 46.74 19.36 16.91 0 33.83-6.46 46.74-19.36 25.81-25.82 25.81-67.67 0-93.48l-31.94 30.38c4.3 4.3 6.45 9.94 6.45 15.58 0 5.64-2.15 11.28-6.45 15.58-8.61 8.6-22.56 8.6-31.16 0l-26.82-26.82c6.6-3.15 12.79-7.45 18.25-12.91 25.81-25.81 25.81-67.67 0-93.48l-18.7-18.7c-12.91-12.91-29.82-19.36-46.74-19.36-16.91 0-33.83 6.45-46.74 19.36-25.81 25.82-25.81 67.67 0 93.48l71.28 71.28"
      style="stroke-width: 15; stroke-miterlimit: 10"
      fill="none"
      stroke="#000000"
      stroke-width="15"
      stroke-miterlimit="10"
      data-original="#000000"
    ></path>
    <path
      d="M157.59 447.64c27.43 20.33 61.39 32.36 98.16 32.36s70.73-12.03 98.16-32.36M91.29 328.42c-.36-4.42-.54-8.9-.54-13.42 0-67.62 40.68-125.74 98.9-151.23M320.83 163.34c58.77 25.24 99.92 83.64 99.92 151.66 0 4.52-.18 9-.54 13.42M233.25 427.353h15M263.25 427.353h15"
      style="stroke-width: 15; stroke-miterlimit: 10"
      fill="none"
      stroke="#000000"
      stroke-width="15"
      stroke-miterlimit="10"
      data-original="#000000"
    ></path>
  </g>
</svg>
