
<svg
  xmlns="http://www.w3.org/2000/svg"
  version="1.1"
  xmlns:xlink="http://www.w3.org/1999/xlink"
  width="512"
  height="512"
  x="0"
  y="0"
  viewBox="0 0 66 66"
  style="enable-background: new 0 0 512 512"
  xml:space="preserve"
  class=""
>
  <g>
    <path
      d="M54.92 11.08C49.07 5.22 41.28 2 33 2s-16.07 3.22-21.92 9.08C5.22 16.93 2 24.72 2 33s3.22 16.06 9.08 21.92C16.93 60.78 24.72 64 33 64s16.07-3.22 21.92-9.08C60.78 49.06 64 41.28 64 33s-3.22-16.07-9.08-21.92zm-3.74 21.19c-.17-4.34-1.86-8.41-4.8-11.6l8.03-8.03c5.08 5.34 7.95 12.26 8.13 19.63zm-6.35 12.56c-.38.38-.78.74-1.2 1.09l-3.44-10.56 8.99-6.53c.35 1.35.54 2.75.54 4.18.01 4.46-1.73 8.66-4.89 11.82zM33 49.73c-3.23 0-6.32-.92-8.98-2.62l8.97-6.52 8.98 6.53A16.745 16.745 0 0 1 33 49.73zm-11.83-4.9c-3.16-3.16-4.9-7.36-4.9-11.83 0-1.43.2-2.82.54-4.17l8.97 6.52-3.43 10.55c-.4-.34-.8-.69-1.18-1.07zm0-23.66c2.91-2.91 6.72-4.6 10.8-4.85l-3.44 10.55H17.44c.83-2.11 2.08-4.05 3.73-5.7zm23.66 0c1.65 1.65 2.9 3.59 3.73 5.7H37.45l-3.44-10.55c4.09.25 7.9 1.93 10.82 4.85zm-8.92 5.7h-5.84l2.92-8.96zm-2.92 11.9-5.48-3.98 2.09-6.45h6.79l2.09 6.45zm-6.73-4.89-7.63-5.54h9.43zm.77 2.37 4.71 3.42-7.63 5.54zm11.92 0 2.92 8.97-7.63-5.54zm.77-2.37-1.8-5.54h9.43zm5.62-14.25a18.026 18.026 0 0 0-11.6-4.8V3.47c7.38.18 14.3 3.04 19.63 8.13zM32.27 3.47v11.35c-4.34.17-8.41 1.86-11.6 4.8l-8.03-8.03a29.364 29.364 0 0 1 19.63-8.12zM11.6 12.64l8.03 8.03a18.225 18.225 0 0 0-3.9 6.61c-.02.03-.04.06-.05.1-.01.02-.01.05-.01.07a18.46 18.46 0 0 0-.85 4.82H3.47c.18-7.38 3.05-14.3 8.13-19.63zm3.22 21.09c.17 4.34 1.86 8.41 4.81 11.6l-8.03 8.03C6.52 48.02 3.65 41.1 3.47 33.73zm5.85 12.64c.48.44.98.84 1.49 1.22.04.05.08.1.14.14.06.05.13.08.21.1 2.86 2.03 6.22 3.2 9.77 3.34v11.35c-7.37-.18-14.29-3.04-19.63-8.13zm13.06 16.16V51.18a17.95 17.95 0 0 0 9.82-3.38c.05-.02.09-.04.13-.07s.06-.06.09-.09c.54-.4 1.06-.81 1.56-1.27l8.03 8.03c-5.34 5.08-12.26 7.95-19.63 8.13zm20.67-9.17-8.03-8.03c2.95-3.19 4.64-7.26 4.81-11.6h11.35c-.18 7.37-3.05 14.29-8.13 19.63z"
      fill="#000"
      opacity="1"
      data-original="#000000"
      class=""
    ></path>
    <path
      d="M21.93 9.32c.29.05 1.23 1.06 1.77 5 .05.36.36.63.73.63s.68-.27.73-.63c.54-3.94 1.48-4.95 1.77-5 .11-.02.61.21 1.25 1.53a.734.734 0 0 0 1.32-.64c-.83-1.71-1.76-2.5-2.8-2.34-.95.15-1.71 1.1-2.27 2.84-.56-1.73-1.32-2.68-2.27-2.84-1.03-.16-1.97.62-2.8 2.34a.734.734 0 0 0 1.32.64c.64-1.32 1.13-1.53 1.25-1.53zM14.35 23.79c-.4.03-.74.32-.74.72 0 .19-.08.38-.19.48-.09.08-.23.11-.32.08-.11-.04-.21-.21-.24-.39-.04-.22 0-.5.13-.88l.11-.34c.1-.29.21-.6.27-.93.12-.64.05-1.23-.21-1.7-.29-.52-.81-.91-1.43-1.05-.51-.12-1.07-.07-1.62.14-.71.27-1.26.78-1.5 1.4-.23.6-.19 1.32.13 2.08.01.02.02.04.03.07-.07-.01-.14-.02-.21-.02C7.15 23.45 6 24.6 6 26c0 1.41 1.15 2.55 2.56 2.55s2.55-1.14 2.55-2.55v-.02c0-.59-.11-1.17-.32-1.71-.11-.28-.25-.55-.39-.81-.11-.2-.22-.41-.3-.62-.17-.4-.21-.75-.11-.99.09-.23.33-.44.66-.56.27-.1.54-.13.77-.08.21.05.39.18.48.33.09.16.11.42.05.72-.05.25-.13.49-.22.73-.04.12-.08.25-.12.37-.13.41-.27.96-.18 1.55.11.71.55 1.29 1.15 1.52.6.24 1.31.1 1.82-.35.43-.38.68-.95.69-1.56a.75.75 0 0 0-.74-.73zm-5.79 3.3c-.6 0-1.1-.49-1.1-1.08 0-.6.49-1.08 1.1-1.08.6 0 1.08.49 1.08 1.08.01.59-.48 1.08-1.08 1.08zM37.84 8.84l.71 2.66c.09.33.38.54.71.54.06 0 .13-.01.19-.02.39-.1.62-.5.52-.9l-.25-.95 2.23 1.29-.61 1.05a.734.734 0 0 0 .64 1.1c.25 0 .5-.13.63-.36l.61-1.05 2 1.16c.12.07.24.1.37.1a.726.726 0 0 0 .36-1.36l-2-1.16.61-1.05c.2-.35.08-.8-.27-1s-.8-.08-1 .27l-.61 1.05-2.23-1.29.95-.25a.735.735 0 1 0-.38-1.42l-2.66.71a.21.21 0 0 0-.11.04c-.05.02-.1.04-.15.07-.08.06-.14.13-.19.22s-.08.18-.09.27c-.02.1-.01.19.02.28zM58.03 21.85c-.82 0-1.55.5-1.82 1.23-.21.58-.77.97-1.38.97s-1.17-.39-1.38-.97c-.27-.74-1-1.23-1.82-1.23-.4 0-.73.33-.73.73s.33.73.73.73c.2 0 .38.11.44.27.19.52.52.95.94 1.28-.39.43-.63 1-.63 1.62 0 1.35 1.1 2.45 2.44 2.45s2.44-1.1 2.44-2.45c0-.63-.24-1.19-.63-1.62.41-.33.75-.76.94-1.28.06-.16.24-.27.44-.27.4 0 .73-.33.73-.73s-.3-.73-.71-.73zm-2.21 4.64c0 .54-.44.98-.98.98s-.98-.44-.98-.98.44-.98.98-.98.98.44.98.98zM51.98 41.96h1.43c.36 0 .7-.2.88-.51s.18-.68 0-.98c-.1-.17-.2-.46-.08-.83.09-.3.35-.55.66-.63.44-.12.76.05.9.16a1 1 0 0 1 .4.8c0 .18-.04.34-.13.5-.18.3-.18.68 0 .99s.51.5.87.5h1.44c.4 0 .73-.33.73-.73s-.33-.73-.73-.73h-.76a2.463 2.463 0 0 0-.91-2.5c-.62-.47-1.41-.62-2.18-.41-.79.22-1.43.83-1.67 1.61-.14.43-.16.88-.06 1.3h-.76c-.4 0-.73.33-.73.73s.29.73.7.73zM51.98 44.68h6.36c.4 0 .73-.33.73-.73s-.33-.73-.73-.73h-6.36c-.4 0-.73.33-.73.73s.32.73.73.73zM43.97 50.14c-.23.02-.43.15-.55.35l-1.01 1.69-.74-.8a.75.75 0 0 0-.61-.23c-.23.02-.43.15-.55.35l-1.01 1.69-.74-.8a.719.719 0 0 0-.61-.23c-.23.02-.43.15-.55.35l-1.51 2.53c-.21.35-.09.8.25 1a.738.738 0 0 0 1-.26l1.01-1.69.74.8c.16.17.38.25.61.23s.43-.15.55-.35l1.01-1.69.74.82c.16.17.39.26.61.23.23-.02.43-.15.55-.35l1.01-1.69.74.8c.28.3.74.31 1.03.04.3-.28.31-.74.04-1.04l-1.41-1.51a.697.697 0 0 0-.6-.24zM45.28 53.89c-.23.02-.43.15-.55.35l-1.01 1.69-.74-.8c-.16-.17-.38-.25-.61-.23s-.43.15-.55.35l-1.01 1.69-.74-.8a.719.719 0 0 0-.61-.23c-.23.02-.43.15-.55.35l-1.51 2.53c-.21.35-.09.8.25 1a.738.738 0 0 0 1-.26l1.01-1.69.74.8c.16.17.39.25.61.23.23-.02.43-.15.55-.35l1.01-1.69.74.8c.16.17.39.25.61.23.23-.02.43-.15.55-.35l1.01-1.69.74.8c.28.3.74.31 1.03.04.3-.28.31-.74.04-1.04l-1.41-1.51a.71.71 0 0 0-.6-.22zM10.36 39.78c0-.56-.22-1.07-.56-1.46 1.13-.1 2.24.38 3.18 1.43.14.16.35.24.55.24.17 0 .35-.06.49-.19.3-.27.33-.73.06-1.03-1.98-2.22-4.76-2.55-7.12-.85-.02.01-.04.02-.05.03-.01 0-.01.01-.02.01l-.01.01c-.56.4-.93 1.06-.93 1.8 0 1.22.99 2.21 2.21 2.21s2.2-.98 2.2-2.2zm-2.96 0a.749.749 0 1 1 1.498-.002.749.749 0 0 1-1.498.002zM11.61 46.27c1.06 0 2.14-.36 3.14-1.08.01-.01.02-.01.03-.02.01 0 .01-.01.02-.01s.01-.01.01-.02c.56-.4.93-1.06.93-1.8a2.21 2.21 0 0 0-4.42 0c0 .56.22 1.07.56 1.46-1.13.1-2.24-.38-3.18-1.43a.729.729 0 1 0-1.09.97c1.16 1.28 2.57 1.93 4 1.93zm1.93-3.68c.41 0 .75.34.75.75s-.34.75-.75.75-.75-.34-.75-.75c.01-.41.34-.75.75-.75zM25.82 53.93h-.55c.08-.5.25-1.01.52-1.52.19-.36.05-.8-.31-.99s-.8-.05-.99.31c-.39.73-.62 1.47-.71 2.21h-1c-.09-.74-.33-1.47-.71-2.21-.19-.36-.63-.5-.99-.31s-.49.63-.31.99c.27.51.44 1.02.52 1.52h-.55c-.4 0-.73.33-.73.73s.33.73.73.73h.53c-.09.47-.25.95-.5 1.42a.731.731 0 0 0 .65 1.07c.26 0 .52-.14.65-.39.37-.7.6-1.4.7-2.11h1.03c.1.7.33 1.41.7 2.11.13.25.39.39.65.39.12 0 .23-.03.34-.08a.74.74 0 0 0 .31-.99c-.25-.48-.41-.95-.5-1.42h.53c.4 0 .73-.33.73-.73s-.33-.73-.74-.73z"
      fill="#000"
      opacity="1"
      data-original="#000000"
      class=""
    ></path>
  </g>
</svg>
